<?xml version="1.0" standalone="no"?><!-- Generator: Gravit.io --><svg xmlns="http://www.w3.org/2000/svg" xmlns:xlink="http://www.w3.org/1999/xlink" style="isolation:isolate" viewBox="-295 -185 128 128" width="128" height="128"><path d="M -275 -185 L -187 -185 C -175.962 -185 -167 -176.038 -167 -165 L -167 -77 C -167 -65.962 -175.962 -57 -187 -57 L -275 -57 C -286.038 -57 -295 -65.962 -295 -77 L -295 -165 C -295 -176.038 -286.038 -185 -275 -185 Z" style="stroke:none;fill:#46237A;stroke-miterlimit:10;"/><path d=" M -227.25 -157.272 C -227.25 -160.991 -232.04 -162.392 -234.148 -159.309 C -253.5 -131.023 -226 -129.75 -226 -116 C -226 -110.433 -230.549 -105.928 -236.133 -106.001 C -241.628 -106.072 -246 -110.653 -246 -116.149 L -246 -129.51 C -246 -132.901 -250.136 -134.545 -252.474 -132.089 C -256.656 -127.694 -261 -120.167 -261 -111 C -261 -94.458 -247.542 -81 -231 -81 C -214.458 -81 -201 -94.458 -201 -111 C -201 -137.608 -227.25 -141.157 -227.25 -157.272 Z " fill="rgb(255,255,255)"/></svg>