<?xml version="1.0" encoding="utf-8"?>
<!-- Generator: Adobe Illustrator 16.0.0, SVG Export Plug-In . SVG Version: 6.00 Build 0)  -->
<!DOCTYPE svg PUBLIC "-//W3C//DTD SVG 1.1//EN" "http://www.w3.org/Graphics/SVG/1.1/DTD/svg11.dtd">
<svg version="1.1" xmlns="http://www.w3.org/2000/svg" xmlns:xlink="http://www.w3.org/1999/xlink" x="0px" y="0px"
	 width="728.977px" height="358.001px" viewBox="0 0 728.977 358.001" enable-background="new 0 0 728.977 358.001"
	 xml:space="preserve">
<g id="Sfondo" display="none">
	<rect x="-162.012" y="-237.999" display="inline" fill="#46237A" width="1024" height="768"/>
</g>
<g id="window">
	<linearGradient id="SVGID_1_" gradientUnits="userSpaceOnUse" x1="364.4883" y1="118.001" x2="364.4883" y2="358.0015">
		<stop  offset="0.7635" style="stop-color:#FFFFFF"/>
		<stop  offset="0.8003" style="stop-color:#FDFDFD;stop-opacity:0.6274"/>
		<stop  offset="0.8135" style="stop-color:#F6F6F6;stop-opacity:0.4931"/>
		<stop  offset="0.8229" style="stop-color:#EBEBEB;stop-opacity:0.3974"/>
		<stop  offset="0.8305" style="stop-color:#DADADA;stop-opacity:0.32"/>
		<stop  offset="0.8371" style="stop-color:#C4C4C4;stop-opacity:0.2537"/>
		<stop  offset="0.8429" style="stop-color:#A8A8A8;stop-opacity:0.195"/>
		<stop  offset="0.8481" style="stop-color:#888888;stop-opacity:0.1419"/>
		<stop  offset="0.8529" style="stop-color:#626262;stop-opacity:0.0931"/>
		<stop  offset="0.8574" style="stop-color:#373737;stop-opacity:0.0477"/>
		<stop  offset="0.8613" style="stop-color:#090909;stop-opacity:0.0074"/>
		<stop  offset="0.8621" style="stop-color:#000000;stop-opacity:0"/>
	</linearGradient>
	<path fill="none" stroke="url(#SVGID_1_)" stroke-miterlimit="10" d="M726.883,341.086c4.081,8.795,0.064,16.415-9.056,16.415
		H11.149c-9.121,0-13.137-7.62-9.055-16.415l99.758-214.677c2.103-4.531,8.958-7.908,15.341-7.908h494.59
		c6.383,0,13.238,3.377,15.341,7.908L726.883,341.086z"/>
	<rect x="105.636" y="117.672" fill="none" stroke="#FFFFFF" stroke-miterlimit="10" width="0" height="0"/>
	<rect x="105.636" y="117.672" fill="none" stroke="#FFFFFF" stroke-miterlimit="10" width="0" height="0"/>
	<rect x="105.636" y="117.672" fill="none" stroke="#FFFFFF" stroke-miterlimit="10" width="0" height="0"/>
	<path fill="none" stroke="#FFFFFF" stroke-miterlimit="10" d="M150.561,129.5c-0.792,2.047-3.75,3.738-6.589,3.738
		c-2.839,0-4.394-1.691-3.49-3.738c0.883-2.003,3.798-3.595,6.529-3.595C149.74,125.905,151.335,127.497,150.561,129.5z"/>
	<path fill="none" stroke="#FFFFFF" stroke-miterlimit="10" d="M136.061,129.5c-0.793,2.047-3.751,3.738-6.589,3.738
		c-2.839,0-4.394-1.691-3.49-3.738c0.883-2.003,3.798-3.595,6.529-3.595C135.24,125.905,136.835,127.497,136.061,129.5z"/>
	<path fill="none" stroke="#FFFFFF" stroke-miterlimit="10" d="M121.561,129.5c-0.792,2.047-3.75,3.738-6.589,3.738
		c-2.839,0-4.394-1.691-3.49-3.738c0.883-2.003,3.798-3.595,6.529-3.595C120.74,125.905,122.335,127.497,121.561,129.5z"/>
</g>
<g id="logo">
	<path id="logo_1_" fill="#FFFFFF" d="M374.379,9.833c0-9.81-12.634-13.504-18.193-5.373c-51.041,74.604,21.49,77.962,21.49,114.228
		c0,14.682-11.998,26.565-26.725,26.373c-14.494-0.188-26.025-12.269-26.025-26.766V83.056c0-8.944-10.909-13.28-17.075-6.803
		c-11.031,11.592-22.487,31.444-22.487,55.622c0,43.629,35.496,79.125,79.125,79.125c43.63,0,79.125-35.496,79.125-79.125
		C443.613,61.697,374.379,52.336,374.379,9.833z"/>
</g>
<g id="text" display="none">
	
		<text transform="matrix(1 0 0 1 284.8633 261.001)" display="inline" fill="#FFFFFF" font-family="'MyriadPro-Bold'" font-size="48">Kindled</text>
	
		<text transform="matrix(1 0 0 1 162.9883 291.001)" display="inline" fill="#FFFFFF" font-family="'MyriadPro-Regular'" font-size="24">Read your favourite articles on your Kindle</text>
</g>
</svg>
