<?xml version="1.0" standalone="no"?><!-- Generator: Gravit.io --><svg xmlns="http://www.w3.org/2000/svg" xmlns:xlink="http://www.w3.org/1999/xlink" style="isolation:isolate" viewBox="-261 -161 60 80" width="60" height="80"><path d=" M -227.25 -157.272 C -227.25 -160.991 -232.04 -162.392 -234.148 -159.309 C -253.5 -131.023 -226 -129.75 -226 -116 C -226 -110.433 -230.549 -105.928 -236.133 -106.001 C -241.628 -106.072 -246 -110.653 -246 -116.149 L -246 -129.51 C -246 -132.901 -250.136 -134.545 -252.474 -132.089 C -256.656 -127.694 -261 -120.167 -261 -111 C -261 -94.458 -247.542 -81 -231 -81 C -214.458 -81 -201 -94.458 -201 -111 C -201 -137.608 -227.25 -141.157 -227.25 -157.272 Z " fill="rgb(70,35,122)"/></svg>